<mxfile host="app.diagrams.net" modified="2024-03-16T15:59:22.179Z" agent="Mozilla/5.0 (Windows NT 10.0; Win64; x64) AppleWebKit/537.36 (KHTML, like Gecko) Chrome/122.0.0.0 Safari/537.36 Edg/122.0.0.0" etag="Tudd5AzaooTY51hNjkik" version="24.0.7" type="device">
  <diagram name="Página-1" id="X5jxbc0w3z0bel90MWa7">
    <mxGraphModel dx="1242" dy="535" grid="0" gridSize="10" guides="1" tooltips="1" connect="1" arrows="1" fold="1" page="0" pageScale="1" pageWidth="827" pageHeight="1169" math="0" shadow="0">
      <root>
        <mxCell id="0" />
        <mxCell id="1" parent="0" />
        <mxCell id="I9M9pyv1piZ46B3RKmRj-1" value="CATEGORIA" style="ellipse;whiteSpace=wrap;html=1;" parent="1" vertex="1">
          <mxGeometry x="97" y="174" width="120" height="80" as="geometry" />
        </mxCell>
        <mxCell id="I9M9pyv1piZ46B3RKmRj-6" style="edgeStyle=none;curved=1;rounded=0;orthogonalLoop=1;jettySize=auto;html=1;exitX=0.5;exitY=1;exitDx=0;exitDy=0;entryX=0.5;entryY=0;entryDx=0;entryDy=0;fontSize=12;startSize=8;endSize=8;" parent="1" source="I9M9pyv1piZ46B3RKmRj-2" target="I9M9pyv1piZ46B3RKmRj-4" edge="1">
          <mxGeometry relative="1" as="geometry" />
        </mxCell>
        <mxCell id="I9M9pyv1piZ46B3RKmRj-2" value="INICIO DE TIENDA" style="rounded=1;whiteSpace=wrap;html=1;" parent="1" vertex="1">
          <mxGeometry x="250" y="98" width="120" height="60" as="geometry" />
        </mxCell>
        <mxCell id="I9M9pyv1piZ46B3RKmRj-4" value="BUSQUEDA" style="rounded=1;whiteSpace=wrap;html=1;" parent="1" vertex="1">
          <mxGeometry x="250" y="178" width="120" height="60" as="geometry" />
        </mxCell>
        <mxCell id="I9M9pyv1piZ46B3RKmRj-5" value="" style="endArrow=classic;html=1;rounded=0;fontSize=12;startSize=8;endSize=8;curved=1;exitX=0;exitY=0.5;exitDx=0;exitDy=0;entryX=1;entryY=0.5;entryDx=0;entryDy=0;" parent="1" source="I9M9pyv1piZ46B3RKmRj-4" target="I9M9pyv1piZ46B3RKmRj-1" edge="1">
          <mxGeometry width="50" height="50" relative="1" as="geometry">
            <mxPoint x="218" y="307" as="sourcePoint" />
            <mxPoint x="268" y="257" as="targetPoint" />
            <Array as="points">
              <mxPoint x="231" y="199" />
            </Array>
          </mxGeometry>
        </mxCell>
        <mxCell id="I9M9pyv1piZ46B3RKmRj-7" value="" style="endArrow=classic;html=1;rounded=0;fontSize=12;startSize=8;endSize=8;curved=1;exitX=1;exitY=0.5;exitDx=0;exitDy=0;entryX=0;entryY=0.5;entryDx=0;entryDy=0;" parent="1" source="I9M9pyv1piZ46B3RKmRj-4" target="I9M9pyv1piZ46B3RKmRj-8" edge="1">
          <mxGeometry width="50" height="50" relative="1" as="geometry">
            <mxPoint x="228" y="317" as="sourcePoint" />
            <mxPoint x="429" y="214" as="targetPoint" />
            <Array as="points">
              <mxPoint x="388" y="198" />
            </Array>
          </mxGeometry>
        </mxCell>
        <mxCell id="I9M9pyv1piZ46B3RKmRj-8" value="PRODUCTO" style="ellipse;whiteSpace=wrap;html=1;" parent="1" vertex="1">
          <mxGeometry x="400" y="174" width="120" height="80" as="geometry" />
        </mxCell>
        <mxCell id="I9M9pyv1piZ46B3RKmRj-9" value="CONFIRMACIÓN&amp;nbsp;" style="triangle;whiteSpace=wrap;html=1;rotation=-92;" parent="1" vertex="1">
          <mxGeometry x="488" y="840" width="127" height="102" as="geometry" />
        </mxCell>
        <mxCell id="I9M9pyv1piZ46B3RKmRj-10" value="CARRITO" style="rounded=1;whiteSpace=wrap;html=1;" parent="1" vertex="1">
          <mxGeometry x="400" y="377" width="120" height="60" as="geometry" />
        </mxCell>
        <mxCell id="I9M9pyv1piZ46B3RKmRj-61" style="edgeStyle=none;curved=1;rounded=0;orthogonalLoop=1;jettySize=auto;html=1;exitX=1;exitY=0.75;exitDx=0;exitDy=0;entryX=0.25;entryY=0;entryDx=0;entryDy=0;fontSize=12;startSize=8;endSize=8;" parent="1" source="I9M9pyv1piZ46B3RKmRj-11" edge="1">
          <mxGeometry relative="1" as="geometry">
            <Array as="points">
              <mxPoint x="276" y="476" />
            </Array>
            <mxPoint x="279" y="527" as="targetPoint" />
          </mxGeometry>
        </mxCell>
        <mxCell id="I9M9pyv1piZ46B3RKmRj-11" value="COMPRA" style="rounded=1;whiteSpace=wrap;html=1;" parent="1" vertex="1">
          <mxGeometry x="108" y="418" width="120" height="60" as="geometry" />
        </mxCell>
        <mxCell id="I9M9pyv1piZ46B3RKmRj-46" style="edgeStyle=none;curved=1;rounded=0;orthogonalLoop=1;jettySize=auto;html=1;exitX=0.5;exitY=1;exitDx=0;exitDy=0;entryX=0.5;entryY=0;entryDx=0;entryDy=0;fontSize=12;startSize=8;endSize=8;" parent="1" source="I9M9pyv1piZ46B3RKmRj-12" target="I9M9pyv1piZ46B3RKmRj-44" edge="1">
          <mxGeometry relative="1" as="geometry" />
        </mxCell>
        <mxCell id="I9M9pyv1piZ46B3RKmRj-12" value="RESULTADOS" style="rounded=1;whiteSpace=wrap;html=1;" parent="1" vertex="1">
          <mxGeometry x="250" y="257" width="120" height="60" as="geometry" />
        </mxCell>
        <mxCell id="I9M9pyv1piZ46B3RKmRj-14" value="" style="endArrow=classic;html=1;rounded=0;fontSize=12;startSize=8;endSize=8;curved=1;entryX=1;entryY=0.5;entryDx=0;entryDy=0;exitX=0.5;exitY=1;exitDx=0;exitDy=0;" parent="1" source="I9M9pyv1piZ46B3RKmRj-8" target="I9M9pyv1piZ46B3RKmRj-12" edge="1">
          <mxGeometry width="50" height="50" relative="1" as="geometry">
            <mxPoint x="352" y="271" as="sourcePoint" />
            <mxPoint x="402" y="221" as="targetPoint" />
            <Array as="points">
              <mxPoint x="446" y="269" />
              <mxPoint x="409" y="254" />
            </Array>
          </mxGeometry>
        </mxCell>
        <mxCell id="I9M9pyv1piZ46B3RKmRj-15" value="" style="endArrow=classic;html=1;rounded=0;fontSize=12;startSize=8;endSize=8;curved=1;exitX=0.5;exitY=1;exitDx=0;exitDy=0;entryX=0;entryY=0.5;entryDx=0;entryDy=0;" parent="1" source="I9M9pyv1piZ46B3RKmRj-1" target="I9M9pyv1piZ46B3RKmRj-12" edge="1">
          <mxGeometry width="50" height="50" relative="1" as="geometry">
            <mxPoint x="352" y="271" as="sourcePoint" />
            <mxPoint x="402" y="221" as="targetPoint" />
            <Array as="points">
              <mxPoint x="180" y="271" />
              <mxPoint x="219" y="258" />
            </Array>
          </mxGeometry>
        </mxCell>
        <mxCell id="I9M9pyv1piZ46B3RKmRj-60" style="edgeStyle=none;curved=1;rounded=0;orthogonalLoop=1;jettySize=auto;html=1;exitX=0;exitY=0.5;exitDx=0;exitDy=0;entryX=0.75;entryY=0;entryDx=0;entryDy=0;fontSize=12;startSize=8;endSize=8;" parent="1" source="I9M9pyv1piZ46B3RKmRj-18" edge="1">
          <mxGeometry relative="1" as="geometry">
            <Array as="points">
              <mxPoint x="349" y="495" />
            </Array>
            <mxPoint x="339" y="527" as="targetPoint" />
          </mxGeometry>
        </mxCell>
        <mxCell id="I9M9pyv1piZ46B3RKmRj-18" value="PRODUCTOS, CANTIDAD" style="rounded=1;whiteSpace=wrap;html=1;" parent="1" vertex="1">
          <mxGeometry x="400" y="459" width="120" height="60" as="geometry" />
        </mxCell>
        <mxCell id="I9M9pyv1piZ46B3RKmRj-19" style="edgeStyle=none;curved=1;rounded=0;orthogonalLoop=1;jettySize=auto;html=1;exitX=0.5;exitY=1;exitDx=0;exitDy=0;entryX=0.5;entryY=0;entryDx=0;entryDy=0;fontSize=12;startSize=8;endSize=8;" parent="1" source="I9M9pyv1piZ46B3RKmRj-10" target="I9M9pyv1piZ46B3RKmRj-18" edge="1">
          <mxGeometry relative="1" as="geometry">
            <mxPoint x="320" y="135" as="sourcePoint" />
            <mxPoint x="320" y="180" as="targetPoint" />
          </mxGeometry>
        </mxCell>
        <mxCell id="I9M9pyv1piZ46B3RKmRj-64" style="edgeStyle=none;curved=1;rounded=0;orthogonalLoop=1;jettySize=auto;html=1;exitX=0.5;exitY=1;exitDx=0;exitDy=0;entryX=0.5;entryY=0;entryDx=0;entryDy=0;fontSize=12;startSize=8;endSize=8;" parent="1" source="I9M9pyv1piZ46B3RKmRj-22" target="I9M9pyv1piZ46B3RKmRj-25" edge="1">
          <mxGeometry relative="1" as="geometry" />
        </mxCell>
        <mxCell id="I9M9pyv1piZ46B3RKmRj-22" value="DATOS DE FACTURACIÓN&amp;nbsp;" style="ellipse;whiteSpace=wrap;html=1;" parent="1" vertex="1">
          <mxGeometry x="249" y="523" width="120" height="80" as="geometry" />
        </mxCell>
        <mxCell id="kp2T25D5hfsjd_psdca_-1" style="edgeStyle=orthogonalEdgeStyle;rounded=0;orthogonalLoop=1;jettySize=auto;html=1;exitX=0.5;exitY=1;exitDx=0;exitDy=0;" edge="1" parent="1" source="I9M9pyv1piZ46B3RKmRj-25" target="I9M9pyv1piZ46B3RKmRj-26">
          <mxGeometry relative="1" as="geometry" />
        </mxCell>
        <mxCell id="I9M9pyv1piZ46B3RKmRj-25" value="DATOS ENVÍO" style="ellipse;whiteSpace=wrap;html=1;" parent="1" vertex="1">
          <mxGeometry x="250" y="623" width="120" height="80" as="geometry" />
        </mxCell>
        <mxCell id="I9M9pyv1piZ46B3RKmRj-26" value="TOTAL DE COMPRA" style="rounded=1;whiteSpace=wrap;html=1;" parent="1" vertex="1">
          <mxGeometry x="250" y="723" width="120" height="60" as="geometry" />
        </mxCell>
        <mxCell id="I9M9pyv1piZ46B3RKmRj-35" style="edgeStyle=none;curved=1;rounded=0;orthogonalLoop=1;jettySize=auto;html=1;exitX=0.975;exitY=0.622;exitDx=0;exitDy=0;entryX=1;entryY=0.5;entryDx=0;entryDy=0;fontSize=12;startSize=8;endSize=8;exitPerimeter=0;" parent="1" source="I9M9pyv1piZ46B3RKmRj-29" target="I9M9pyv1piZ46B3RKmRj-9" edge="1">
          <mxGeometry relative="1" as="geometry">
            <Array as="points">
              <mxPoint x="537" y="797" />
            </Array>
          </mxGeometry>
        </mxCell>
        <mxCell id="I9M9pyv1piZ46B3RKmRj-43" value="" style="edgeStyle=none;curved=1;rounded=0;orthogonalLoop=1;jettySize=auto;html=1;fontSize=12;startSize=8;endSize=8;entryX=1;entryY=0.5;entryDx=0;entryDy=0;" parent="1" source="I9M9pyv1piZ46B3RKmRj-29" target="I9M9pyv1piZ46B3RKmRj-39" edge="1">
          <mxGeometry relative="1" as="geometry">
            <Array as="points">
              <mxPoint x="371" y="814" />
            </Array>
          </mxGeometry>
        </mxCell>
        <mxCell id="I9M9pyv1piZ46B3RKmRj-29" value="CRÉDITO" style="ellipse;whiteSpace=wrap;html=1;" parent="1" vertex="1">
          <mxGeometry x="396" y="742" width="120" height="80" as="geometry" />
        </mxCell>
        <mxCell id="I9M9pyv1piZ46B3RKmRj-41" style="edgeStyle=none;curved=1;rounded=0;orthogonalLoop=1;jettySize=auto;html=1;exitX=0;exitY=1;exitDx=0;exitDy=0;entryX=1;entryY=0.5;entryDx=0;entryDy=0;fontSize=12;startSize=8;endSize=8;" parent="1" source="I9M9pyv1piZ46B3RKmRj-30" target="I9M9pyv1piZ46B3RKmRj-37" edge="1">
          <mxGeometry relative="1" as="geometry">
            <Array as="points">
              <mxPoint x="83" y="810" />
            </Array>
          </mxGeometry>
        </mxCell>
        <mxCell id="I9M9pyv1piZ46B3RKmRj-42" style="edgeStyle=none;curved=1;rounded=0;orthogonalLoop=1;jettySize=auto;html=1;exitX=1;exitY=1;exitDx=0;exitDy=0;entryX=1;entryY=0.5;entryDx=0;entryDy=0;fontSize=12;startSize=8;endSize=8;" parent="1" source="I9M9pyv1piZ46B3RKmRj-30" target="I9M9pyv1piZ46B3RKmRj-36" edge="1">
          <mxGeometry relative="1" as="geometry">
            <Array as="points">
              <mxPoint x="240" y="808" />
            </Array>
          </mxGeometry>
        </mxCell>
        <mxCell id="I9M9pyv1piZ46B3RKmRj-30" value="PAYPAL" style="ellipse;whiteSpace=wrap;html=1;" parent="1" vertex="1">
          <mxGeometry x="104" y="742" width="120" height="80" as="geometry" />
        </mxCell>
        <mxCell id="I9M9pyv1piZ46B3RKmRj-31" style="edgeStyle=none;curved=1;rounded=0;orthogonalLoop=1;jettySize=auto;html=1;exitX=0;exitY=0.25;exitDx=0;exitDy=0;entryX=1;entryY=0;entryDx=0;entryDy=0;fontSize=12;startSize=8;endSize=8;" parent="1" source="I9M9pyv1piZ46B3RKmRj-26" target="I9M9pyv1piZ46B3RKmRj-30" edge="1">
          <mxGeometry relative="1" as="geometry">
            <mxPoint x="320" y="704" as="sourcePoint" />
            <mxPoint x="320" y="733" as="targetPoint" />
            <Array as="points">
              <mxPoint x="229" y="723" />
            </Array>
          </mxGeometry>
        </mxCell>
        <mxCell id="I9M9pyv1piZ46B3RKmRj-32" style="edgeStyle=none;curved=1;rounded=0;orthogonalLoop=1;jettySize=auto;html=1;exitX=1;exitY=0.25;exitDx=0;exitDy=0;fontSize=12;startSize=8;endSize=8;entryX=0;entryY=0;entryDx=0;entryDy=0;" parent="1" source="I9M9pyv1piZ46B3RKmRj-26" target="I9M9pyv1piZ46B3RKmRj-29" edge="1">
          <mxGeometry relative="1" as="geometry">
            <mxPoint x="330" y="714" as="sourcePoint" />
            <mxPoint x="422" y="723" as="targetPoint" />
            <Array as="points">
              <mxPoint x="396" y="725" />
            </Array>
          </mxGeometry>
        </mxCell>
        <mxCell id="I9M9pyv1piZ46B3RKmRj-36" value="NEGACIÓN" style="triangle;whiteSpace=wrap;html=1;rotation=-92;" parent="1" vertex="1">
          <mxGeometry x="197" y="857" width="108" height="102" as="geometry" />
        </mxCell>
        <mxCell id="I9M9pyv1piZ46B3RKmRj-37" value="CONFIRMACIÓN&amp;nbsp;" style="triangle;whiteSpace=wrap;html=1;rotation=-92;" parent="1" vertex="1">
          <mxGeometry x="19" y="851.51" width="127" height="102" as="geometry" />
        </mxCell>
        <mxCell id="I9M9pyv1piZ46B3RKmRj-39" value="NEGACIÓN" style="triangle;whiteSpace=wrap;html=1;rotation=-92;" parent="1" vertex="1">
          <mxGeometry x="319" y="851.51" width="108" height="102" as="geometry" />
        </mxCell>
        <mxCell id="I9M9pyv1piZ46B3RKmRj-47" style="edgeStyle=none;curved=1;rounded=0;orthogonalLoop=1;jettySize=auto;html=1;exitX=1;exitY=0.5;exitDx=0;exitDy=0;entryX=0;entryY=0.5;entryDx=0;entryDy=0;fontSize=12;startSize=8;endSize=8;" parent="1" source="I9M9pyv1piZ46B3RKmRj-44" target="I9M9pyv1piZ46B3RKmRj-10" edge="1">
          <mxGeometry relative="1" as="geometry">
            <Array as="points">
              <mxPoint x="386" y="375" />
            </Array>
          </mxGeometry>
        </mxCell>
        <mxCell id="I9M9pyv1piZ46B3RKmRj-49" style="edgeStyle=none;curved=1;rounded=0;orthogonalLoop=1;jettySize=auto;html=1;exitX=0;exitY=0.5;exitDx=0;exitDy=0;entryX=0.75;entryY=0;entryDx=0;entryDy=0;fontSize=12;startSize=8;endSize=8;" parent="1" source="I9M9pyv1piZ46B3RKmRj-44" target="I9M9pyv1piZ46B3RKmRj-11" edge="1">
          <mxGeometry relative="1" as="geometry">
            <Array as="points">
              <mxPoint x="204" y="375" />
            </Array>
          </mxGeometry>
        </mxCell>
        <mxCell id="I9M9pyv1piZ46B3RKmRj-44" value="SELECCIÓN DE PRODUCTO" style="ellipse;whiteSpace=wrap;html=1;" parent="1" vertex="1">
          <mxGeometry x="250" y="338" width="120" height="80" as="geometry" />
        </mxCell>
      </root>
    </mxGraphModel>
  </diagram>
</mxfile>
